/* XPM */
static char *result[] = {
/* columns rows colors chars-per-pixel */
"50 50 216 2 ",
"   c #050505",
".  c #080707",
"X  c #0C0C0C",
"o  c #141414",
"O  c #1A1A1A",
"+  c #1C1916",
"@  c #242424",
"#  c #2B2B2B",
"$  c #3F2B23",
"%  c #3E2B29",
"&  c #3B312D",
"*  c gray20",
"=  c #3B3B3B",
"-  c #3A3431",
";  c #432E25",
":  c #432F2B",
">  c #44312A",
",  c #4B352C",
"<  c #4F3A2B",
"1  c #55392E",
"2  c #493632",
"3  c #513A32",
"4  c #5A3D34",
"5  c #5B3F38",
"6  c #5D4235",
"7  c #5E483D",
"8  c #574139",
"9  c #694A3C",
"0  c #454545",
"q  c #4A4A4A",
"w  c #54464A",
"e  c #5B4C4F",
"r  c #584746",
"t  c #584B55",
"y  c #535353",
"u  c #5C5C5C",
"i  c #634A42",
"p  c #704A48",
"a  c #645146",
"s  c #64514A",
"d  c #6C544D",
"f  c #72524A",
"g  c #755B49",
"h  c #764F50",
"j  c #6A5B54",
"k  c #62555A",
"l  c #67595A",
"z  c #7B5653",
"x  c #735D53",
"c  c #7C5B56",
"v  c #745F5C",
"b  c #7C5D5B",
"n  c #715753",
"m  c #6E615D",
"M  c #7B6154",
"N  c #7C6A5D",
"B  c #796356",
"V  c #656565",
"C  c #6D6D6D",
"Z  c #726364",
"A  c #7F6B62",
"S  c #7C6B6B",
"D  c #766769",
"F  c gray45",
"G  c #7B7B7B",
"H  c #805B54",
"J  c #835D5C",
"K  c #895B57",
"L  c #84635D",
"P  c #8D665E",
"I  c #85695E",
"U  c #866054",
"Y  c #856463",
"T  c #896562",
"R  c #856D66",
"E  c #8C6C65",
"W  c #8D6B69",
"Q  c #836D6E",
"!  c #946D69",
"~  c #936D66",
"^  c #837063",
"/  c #8C776A",
"(  c #927363",
")  c #95756B",
"_  c #9B7A6E",
"`  c #9A7567",
"'  c #8A7572",
"]  c #8D7C76",
"[  c #857476",
"{  c #9D7B73",
"}  c #A47B73",
"|  c #92836E",
" . c #89817A",
".. c #948675",
"X. c #94857F",
"o. c #9D8C7E",
"O. c #9D8579",
"+. c #A68379",
"@. c #AE837B",
"#. c #AE8B7A",
"$. c #A3877A",
"%. c #B48A7C",
"&. c #B0847A",
"*. c #B4957E",
"=. c #B9987E",
"-. c #828282",
";. c #898989",
":. c #9C9186",
">. c #9A928D",
",. c #909090",
"<. c #9C9C9B",
"1. c #A88C87",
"2. c #A49484",
"3. c #A89684",
"4. c #A79887",
"5. c #AB9A85",
"6. c #A79788",
"7. c #AC968C",
"8. c #AC9A8C",
"9. c #B39283",
"0. c #BE9685",
"q. c #BB9984",
"w. c #BC978A",
"e. c #B39C8D",
"r. c #BD9C8B",
"t. c #B79688",
"y. c #AC9A99",
"u. c #B69998",
"i. c #B4A28F",
"p. c #B8A896",
"a. c #BEB09B",
"s. c #AEA7A2",
"d. c #B6A8A4",
"f. c #BEB1AF",
"g. c #BCB6B1",
"h. c #C49C8E",
"j. c #C49A88",
"k. c #C49D91",
"l. c #CD9E94",
"z. c #C8A18E",
"x. c #CBA595",
"c. c #C4AC95",
"v. c #CAA596",
"b. c #D3AE9A",
"n. c #C7B195",
"m. c #D8B499",
"M. c #E1AE9F",
"N. c #DBAFA2",
"B. c #C1B3AA",
"V. c #CEBEA9",
"C. c #C9B7A6",
"Z. c #D5B6A5",
"A. c #DFB4A5",
"S. c #D2BFA4",
"D. c #DEBBA5",
"F. c #D8B9AA",
"G. c #C9BAB8",
"H. c #E4B5A2",
"J. c #EBBCA6",
"K. c #E2BDAE",
"L. c #EABAA7",
"P. c #F0BAA3",
"I. c #D4C2AB",
"U. c #DCC9AC",
"Y. c #D6C2A2",
"T. c #DBCBB6",
"R. c #DDD9BB",
"E. c #E9C5AA",
"W. c #F1CCAE",
"Q. c #F2C7AC",
"!. c #E3C6B4",
"~. c #E3CFB1",
"^. c #ECCDB3",
"/. c #E9C9B8",
"(. c #F3C7B9",
"). c #ECD3B3",
"_. c #EAD4BD",
"`. c #EDDBBA",
"'. c #E6D6B8",
"]. c #F3DBBC",
"[. c #F9DBBE",
"{. c #F5D2B4",
"}. c #F8E7B7",
"|. c #F7E3BF",
" X c #FAE0BE",
".X c #EDD2C1",
"XX c #E6DCCD",
"oX c #ECDDCC",
"OX c #E5D8C4",
"+X c #F3D8C8",
"@X c #EBE3CC",
"#X c #EAE6CA",
"$X c #F1E2C4",
"%X c #FAE1C2",
"&X c #F6EDC6",
"*X c #F3E5CA",
"=X c #FAE7C9",
"-X c #FBF4CD",
";X c #ECE2D2",
":X c #EEE7DB",
">X c #F3E1D4",
",X c #F9E9D2",
"<X c #FDF5D2",
"1X c #FCF9D5",
"2X c #F5F0DC",
"3X c #FCF4DE",
"4X c #FBFBDB",
"5X c #F6F7D7",
"6X c #E6E6E3",
"7X c #FCF5E0",
"8X c #FDFCE2",
"9X c #FCFDEB",
"0X c #FDF3E8",
"qX c #FDFEF4",
"wX c #FEFEFB",
"eX c None",
/* pixels */
"eXeXeXeXeXeXeXeXeXeXeXeXeXeXeXeXeXeXd.g.:.o.4.2...:.V.XX:XeXeXeXeXeXeXeXeXeXeXeXeXeXeXeXeXeXeXeXeXeX",
"eXeXeXeXeXeXeXeXeXeXeXeXeXeXeXeXeX:.N 5.i.a.| B B ^ o.C.#X7X;X7XeXeXeXeXeXeXeXeXeXeXeXeXeXeXeXeXeXeX",
"eXeXeXeXeXeXeXeXeXeXeXeXeXeXeXeXd.N m 3.5.i./ ^ o.C.I.V.R.2X#XR.2XeXeXeXeXeXeXeXeXeXeXeXeXeXeXeXeXeX",
"eXeXeXeXeXeXeXeXeXeXeXeXeXeXeXeX' x m ] 8.i.5.i.U.~.Y.p.S.R.I.c.I.;XeXeXeXeXeXeXeXeXeXeXeXeXeXeXeXeX",
"eXeXeXeXeXeXeXeXeXeXeXeXeXeXeXeXj j m ..a.T.'.$XU.Y.).'.;X;XT.c.n..XeXeXeXeXeXeXeXeXeXeXeXeXeXeXeXeX",
"eXeXeXeXeXeXeXeXeXeXeXeXeXeXeXs.d S ' 6.i.%.=.E. X-X8X9XqXwX9X#X'.@XeXeXeXeXeXeXeXeXeXeXeXeXeXeXeXeX",
"eXeXeXeXeXeXeXeXeXeXeXeXeXeXeX>.e l ' 7.9.z.H.Q. X-X9XwXwXwXqX8X1X2XeXeXeXeXeXeXeXeXeXeXeXeXeXeXeXeX",
"eXeXeXeXeXeXeXeXeXeXeXeXeXeXeXX.e l S ' { h.H.P.{.&X8XwXwXwXqX9X4X8XeXeXeXeXeXeXeXeXeXeXeXeXeXeXeXeX",
"eXeXeXeXeXeXeXeXeXeXeXeXeXeXeX[ w k Q ] W %.M.J.W.|.1XqXwXwXwXqX4X4XeXeXeXeXeXeXeXeXeXeXeXeXeXeXeXeX",
"eXeXeXeXeXeXeXeXeXeXeXeXeXeXeXQ t t Z Q Y ` h.H.W. X<X9XwXwXwXqX4X#XeXeXeXeXeXeXeXeXeXeXeXeXeXeXeXeX",
"eXeXeXeXeXeXeXeXeXeXeXeXeXeXeXD t t l m B T 9.b.J.).].4X9XqX9X7X<X$XXXeXeXeXeXeXeXeXeXeXeXeXeXeXeXeX",
"eXeXeXeXeXeXeXeXeXeXeXeXeXeXeXZ w w e s s a M I I ( 5.I.oXoXC.O./ o...g.eXeXeXeXeXeXeXeXeXeXeXeXeXeX",
"eXeXeXeXeXeXeXeXeXeXeXeXeXeXy.r : 2 2 r s 8 ; ; ; ; , 5 g g 4 , < 7 6 d eXeXeXeXeXeXeXeXeXeXeXeXeXeX",
"eXeXeXeXeXeXeXeXeXeXeXeXeXB.W b i i n J i , $ $ $ : : 3 V.i.4 , < < 6 j eXeXeXeXeXeXeXeXeXeXeXeXeXeX",
"eXeXeXeXeXeXeXeXeXeXeXeXeX7.K Y L d c c i 2 : , : % ; 4 u.+Xc 1 , 1 i  .eXeXeXeXeXeXeXeXeXeXeXeXeXeX",
"eXeXeXeXeXeXeXeXeXeXeXeXeXd.J J L z J b f 5 3 s 2 ; 5 g %.=XS.9 9 6 R eXeXeXeXeXeXeXeXeXeXeXeXeXeXeX",
"eXeXeXeXeXeXeXeXeXeXeXeXeXeXL p z J L L H z f M _ t.@.! } /.,Xq.j.S.#XeXeXeXeXeXeXeXeXeXeXeXeXeXeXeX",
"eXeXeXeXeXeXeXeXeXeXeXeXeXeXO.z h c L T T P k.(.[.h.! L P v.^.).z.].-XeXeXeXeXeXeXeXeXeXeXeXeXeXeXeX",
"eXeXeXeXeXeXeXeXeXeXeXeXeXeXf.T L Y T W ! ( j.E.D.` K ~ h.E.|.|.m.m.%XeXeXeXeXeXeXeXeXeXeXeXeXeXeXeX",
"eXeXeXeXeXeXeXeXeXeXeXeXeXeXeX1.W R E W ! _ 9.A.0.#.h.A.!._.`.).{.m.[.eXeXeXeXeXeXeXeXeXeXeXeXeXeXeX",
"eXeXeXeXeXeXeXeXeXeXeXeXeXeXeXeXy.R ) ) ) { q.x.` } @.0.Z.XX>XU.`.W.%XeXeXeXeXeXeXeXeXeXeXeXeXeXeXeX",
"eXeXeXeXeXeXeXeXeXeXeXeXeXeXeXeXeXd.{ ) W ) *.m.U H } N.+X0X0X<X-X}.=XeXeXeXeXeXeXeXeXeXeXeXeXeXeXeX",
"eXeXeXeXeXeXeXeXeXeXeXeXeXeXeXeXeXeXu.+._ ` #.^.z.{ @.l.K..X@X&X<X&X*XeXeXeXeXeXeXeXeXeXeXeXeXeXeXeX",
"eXeXeXeXeXeXeXeXeXeXeXeXeXeXeXeXeXeXeXB.1.+.#.b.F.#.} &.v.F.`.<X9X7XeXeXeXeXeXeXeXeXeXeXeXeXeXeXeXeX",
"eXeXeXeXeXeXeXeXeXeXeXeXeXeXeXeXeXeXeXeXG.7.#.q.b.w.k.K.+X,X7XqXwX6XeXeXeXeXeXeXeXeXeXeXeXeXeXeXeXeX",
"eXeXeXeXeXeXeXeXeXeXeXeXeXeXeXeXeXeXeXeX-.<.:.9.w.k.A./.>X7X9XwX<.o O @ * eXeXeXeXeXeXeXeXeXeXeXeXeX",
"eXeXeXeXeXeXeXeXeXeXeXeXeXeXeX= o .         . & A e.Z.!..X>X;XG X         ,.eXeXeXeXeXeXeXeXeXeXeXeX",
"eXeXeXeXeXeXeXeXeXeXeXeXeXeXeXo   .             . + r N ^ j - .           G eXeXeXeXeXeXeXeXeXeXeXeX",
"eXeXeXeXeXeXeXeXeXeXeXeXeXeXeXO                         .                 C eXeXeXeXeXeXeXeXeXeXeXeX",
"eXeXeXeXeXeXeXeXeXeXeXeXeXeXeXO                                           y eXeXeXeXeXeXeXeXeXeXeXeX",
"eXeXeXeXeXeXeXeXeXeXeXeXeXeXeX@                             X X X X   X   u eXeXeXeXeXeXeXeXeXeXeXeX",
"eXeXeXeXeXeXeXeXeXeXeXeXeXeXeXu = = = 0 0 y y u @         u eXeXeXeXeXeXeXeXeXeXeXeXeXeXeXeXeXeXeXeX",
"eXeXeXeXeXeXeXeXeXeXeXeXeXeXeXeXeXeXeXeXeXeXeXeX=         u eXeXeXeXeXeXeXeXeXeXeXeXeXeXeXeXeXeXeXeX",
"eXeXeXeXeXeXeXeXeXeXeXeXeXeXeXeXeXeXeXeXeXeXeXeXo         = eXeXeXeXeXeXeXeXeXeXeXeXeXeXeXeXeXeXeXeX",
"eXeXeXeXeXeXeXeXeXeXeXeXeXeXeXeXeXeXeXeXeXeXeXF           O eXeXeXeXeXeXeXeXeXeXeXeXeXeXeXeXeXeXeXeX",
"eXeXeXeXeXeXeXeXeXeXeXeXeXeXeXeXeXeXeXeXeXeXeX*             eXeXeXeXeXeXeXeXeXeXeXeXeXeXeXeXeXeXeXeX",
"eXeXeXeXeXeXeXeXeXeXeXeXeXeXeXeXeXeXeXeXeXeXeXX             F eXeXeXeXeXeXeXeXeXeXeXeXeXeXeXeXeXeXeX",
"eXeXeXeXeXeXeXeXeXeXeXeXeXeXeXeXeXeXeXeXeXeXu       O       q eXeXeXeXeXeXeXeXeXeXeXeXeXeXeXeXeXeXeX",
"eXeXeXeXeXeXeXeXeXeXeXeXeXeXeXeXeXeXeXeXeXeX@ X     G X     @ eXeXeXeXeXeXeXeXeXeXeXeXeXeXeXeXeXeXeX",
"eXeXeXeXeXeXeXeXeXeXeXeXeXeXeXeXeXeXeXeXeX;.      O eXo     O eXeXeXeXeXeXeXeXeXeXeXeXeXeXeXeXeXeXeX",
"eXeXeXeXeXeXeXeXeXeXeXeXeXeXeXeXeXeXeXeXeX0       y eXo     o eXeXeXeXeXeXeXeXeXeXeXeXeXeXeXeXeXeXeX",
"eXeXeXeXeXeXeXeXeXeXeXeXeXeXeXeXeXeXeXeXeXo     X eXeXO     X eXeXeXeXeXeXeXeXeXeXeXeXeXeXeXeXeXeXeX",
"eXeXeXeXeXeXeXeXeXeXeXeXeXeXeXeXeXeXeXeXV       = eXeXO       eXeXeXeXeXeXeXeXeXeXeXeXeXeXeXeXeXeXeX",
"eXeXeXeXeXeXeXeXeXeXeXeXeXeXeXeXeXeXeXeX@       -.eXeX@       <.eXeXeXeXeXeXeXeXeXeXeXeXeXeXeXeXeXeX",
"eXeXeXeXeXeXeXeXeXeXeXeXeXeXeXeXeXeXeX-.      @ eXeXeX@       -.eXeXeXeXeXeXeXeXeXeXeXeXeXeXeXeXeXeX",
"eXeXeXeXeXeXeXeXeXeXeXeXeXeXeXeXeXeXeX0       V eXeXeX@       ;.eXeXeXeXeXeXeXeXeXeXeXeXeXeXeXeXeXeX",
"eXeXeXeXeXeXeXeXeXeXeXeXeXeXeXeXeXeXeXo     o eXeXeXeX#       F eXeXeXeXeXeXeXeXeXeXeXeXeXeXeXeXeXeX",
"eXeXeXeXeXeXeXeXeXeXeXeXeXeXeXeXeXeXeXF 0 X q eXeXeXeX*       u eXeXeXeXeXeXeXeXeXeXeXeXeXeXeXeXeXeX",
"eXeXeXeXeXeXeXeXeXeXeXeXeXeXeXeXeXeXeXeXeXeXeXeXeXeXeX*       F eXeXeXeXeXeXeXeXeXeXeXeXeXeXeXeXeXeX",
"eXeXeXeXeXeXeXeXeXeXeXeXeXeXeXeXeXeXeXeXeXeXeXeXeXeXeXy 0 q F eXeXeXeXeXeXeXeXeXeXeXeXeXeXeXeXeXeXeX"
};
